# AST/ASF file generated using VICON BodyLanguage
# -----------------------------------------------
:version 1.10
:name VICON
:units
  mass 1.0
  length 0.45
  angle deg
:documentation
   .ast/.asf automatically generated from VICON data using
   VICON BodyBuilder and BodyLanguage model FoxedUp or BRILLIANT.MOD
:root
   order TX TY TZ RX RY RZ
   axis XYZ
   position 0 0 0  
   orientation 0 0 0 
:bonedata
  begin
     id 1 
     name lhipjoint
     direction 0.623529 -0.717805 0.309788 
     length 2.23224 
     axis 0 0 0  XYZ
  end
  begin
     id 2 
     name lfemur
     direction 0.34202 -0.939693 0  
     length 7.11402  
     axis 0 0 20  XYZ
    dof rx ry rz
    limits (-160.0 20.0)
           (-70.0 70.0)
           (-60.0 70.0)
  end
  begin
     id 3 
     name ltibia
     direction 0.34202 -0.939693 0   
     length 6.78496   
     axis 0 0 20   XYZ
    dof rx
    limits (-10.0 170.0)
  end
  begin
     id 4 
     name lfoot
     direction 0.125078 -0.343648 0.930732   
     length 1.84054   
     axis -90 7.62852e-016 20   XYZ
    dof rx rz
    limits (-45.0 90.0)
           (-70.0 20.0)
  end
  begin
     id 5 
     name ltoes
     direction 1.53565e-011 -4.21893e-011 1   
     length 0.916474   
     axis -90 7.62852e-016 20   XYZ
    dof rx
    limits (-90.0 20.0)
  end
  begin
     id 6 
     name rhipjoint
     direction -0.564688 -0.757748 0.327026   
     length 2.11457  
     axis 0 0 0  XYZ 
  end
  begin
     id 7 
     name rfemur
     direction -0.34202 -0.939693 0   
     length 7.14609   
     axis 0 0 -20   XYZ
    dof rx ry rz
    limits (-160.0 20.0)
           (-70.0 70.0)
           (-70.0 60.0)
  end
  begin
     id 8 
     name rtibia
     direction -0.34202 -0.939693 0   
     length 6.78101   
     axis 0 0 -20   XYZ
    dof rx
    limits (-10.0 170.0)
 end
 begin
     id 9 
     name rfoot
     direction -0.0992671 -0.272734 0.956955   
     length 1.96168  
     axis -90 -7.62852e-016 -20   XYZ
    dof rx rz
    limits (-45.0 90.0)
           (-20.0 70.0)
  end
  begin
     id 10 
     name rtoes
     direction -1.5356e-011 -4.21891e-011 1   
     length 0.982933   
     axis -90 -7.62852e-016 -20   XYZ
    dof rx
    limits (-90.0 20.0)
  end
  begin
     id 11 
     name lowerback
     direction -0.00596953 0.998668 0.0512524   
     length 1.87557   
     axis 0 0 0   XYZ
    dof rx ry rz
    limits (-20.0 45.0)
           (-30.0 30.0)
           (-30.0 30.0)
  end
  begin
     id 12 
     name upperback
     direction 0.00584879 0.999652 0.0257308   
     length 1.87883   
     axis 0 0 0   XYZ
    dof rx ry rz
    limits (-20.0 45.0)
           (-30.0 30.0)
           (-30.0 30.0)
  end
  begin
     id 13 
     name thorax
     direction 0.010104 0.999947 0.00178881   
     length 1.87779   
     axis 0 0 0   XYZ
    dof rx ry rz
    limits (-20.0 45.0)
           (-30.0 30.0)
           (-30.0 30.0)
  end
  begin
     id 14 
     name lowerneck
     direction 0.0120771 0.995934 -0.0892773   
     length 1.40897   
     axis 0 0 0   XYZ
    dof rx ry rz
    limits (-20.0 45.0)
           (-30.0 30.0)
           (-30.0 30.0)
  end
  begin
     id 15 
     name upperneck
     direction -0.030568 0.999465 -0.0116366   
     length 1.38661   
     axis 0 0 0   XYZ
    dof rx ry rz
    limits (-20.0 45.0)
           (-30.0 30.0)
           (-30.0 30.0)
  end
  begin
     id 16
     name head
     direction -0.0170715 0.999854 -0.00104426  
     length 1.47052  
     axis 0 0 0   XYZ
    dof rx ry rz
    limits (-20.0 45.0)
           (-30.0 30.0)
           (-30.0 30.0)
  end
  begin
     id 17 
     name lclavicle
     direction 0.977763 0.206143 0.038532  
     length 3.02424  
     axis 0 0 0   XYZ
    dof ry rz
    limits (-20.0 10.0)
           (0.0 20.0)
  end
  begin
     id 18 
     name lhumerus
     direction 1 -4.48965e-011 -2.62654e-027   
     length 4.68382   
     axis 180 -30 -90   XYZ
    dof rx ry rz
    limits (-60.0 90.0)
           (-90.0 90.0)
           (-90.0 90.0)
  end
  begin
     id 19
     name lradius
     direction 1 -4.48973e-011 -1.54954e-027   
     length 2.98124   
     axis 180 -30 -90   XYZ
    dof rx
    limits (-10.0 170.0)
  end
  begin
     id 20
     name lwrist
     direction 1 -4.48959e-011 7.20928e-028   
     length 1.49062   
     axis -5.52449e-016 90 90   XYZ
    dof ry
    limits (-180.0 0.0)
 end
  begin
     id 21 
     name lhand
     direction 1 -4.48971e-011 1.44186e-027   
     length 0.707595   
     axis -9.20027e-016 90 90   XYZ
    dof rx rz
    limits (-90.0 90.0)
           (-45.0 45.0)
  end
  begin
     id 22 
     name lfingers
     direction 1 -4.48985e-011 2.88371e-027   
     length 0.570481   
     axis -1.84005e-015 90 90   XYZ
    dof rx
    limits (0.0 90.0)
  end
  begin
     id 23
     name lthumb
     direction 0.707107 -6.34929e-011 0.707107   
     length 0.819101   
     axis -90 45 2.85299e-015   XYZ
    dof rx rz
    limits (-45.0 45.0)
           (-45.0 45.0)
  end
  begin
     id 24 
     name rclavicle
     direction -0.958661 0.284411 -0.00895327   
     length 3.11921  
     axis 0 0 0   XYZ 
    dof ry rz
    limits (-10.0 20.0)
           (-20.0 0.0)
  end
  begin
     id 25 
     name rhumerus
     direction -1 -4.48963e-011 -4.22193e-027  
     length 4.75876   
     axis 180 30 90   XYZ
    dof rx ry rz
    limits (-90.0 60.0)
           (-90.0 90.0)
           (-90.0 90.0)
  end
  begin
     id 26 
     name rradius
     direction -1 -4.48968e-011 -1.07616e-027   
     length 2.93293   
     axis 180 30 90   XYZ
    dof rx
    limits (-10.0 170.0)
  end
  begin
     id 27 
     name rwrist
     direction -1 -4.48965e-011 7.20928e-028   
     length 1.46647   
     axis -5.52449e-016 -90 -90   XYZ
    dof ry
    limits (-180.0 0.0)
  end
  begin
     id 28
     name rhand
     direction -1 -4.48971e-011 1.44186e-027   
     length 0.831748   
     axis -9.20027e-016 -90 -90   XYZ
    dof rx rz
    limits (-90.0 90.0)
           (-45.0 45.0)
  end
  begin
     id 29
     name rfingers
     direction -1 -4.48961e-011 2.88371e-027   
     length 0.670577   
     axis -1.84005e-015 -90 -90   XYZ
    dof rx
    limits (0.0 90.0)
  end
  begin
     id 30
     name rthumb
     direction -0.707107 -6.34929e-011 0.707107   
     length 0.962818   
     axis -90 -45 -2.85299e-015   XYZ
    dof rx rz
    limits (-45.0 45.0)
           (-45.0 45.0)
  end
:hierarchy
  begin
    root lhipjoint rhipjoint lowerback
    lhipjoint lfemur
    lfemur ltibia
    ltibia lfoot
    lfoot ltoes
    rhipjoint rfemur
    rfemur rtibia
    rtibia rfoot
    rfoot rtoes
    lowerback upperback
    upperback thorax
    thorax lowerneck lclavicle rclavicle
    lowerneck upperneck
    upperneck head
    lclavicle lhumerus
    lhumerus lradius
    lradius lwrist
    lwrist lhand lthumb
    lhand lfingers
    rclavicle rhumerus
    rhumerus rradius
    rradius rwrist
    rwrist rhand rthumb
    rhand rfingers
  end

#!OML:ASF E:\id_vita\Project 1\Capture day 1\Session 1\Female.ASF
:FULLY-SPECIFIED
:DEGREES
427
root -19.9206 14.1035 2.66753 8.79762 81.3297 -59.3574
lowerback 7.54104 3.27046 -7.33173
upperback -0.285886 3.5144 -5.22084
thorax -4.64902 1.87413 -1.76011
lowerneck -2.18473 -0.462134 -5.61457
upperneck -29.9268 3.94854 12.6969
head -9.2992 2.14368 5.07213
rclavicle 1.07344e-014 7.81224e-014
rhumerus 41.0003 18.7751 -67.3501
rradius 57.4951
rwrist 20.649
rhand -49.2999 53.7502
rfingers 7.12502
rthumb -21.917 24.9716
lclavicle 1.07344e-014 7.81224e-014
lhumerus 54.0233 -12.0936 44.5856
lradius 46.0584
lwrist -21.9002
lhand -53.2386 50.6784
lfingers 7.12502
lthumb -25.6943 798.964
rfemur -38.2235 8.02557 26.4227
rtibia 15.299
rfoot -10.039 -21.6149
rtoes -13.1698
lfemur -108.367 8.9816 -25.974
ltibia 68.6558
lfoot -32.1083 4.47335
ltoes -9.46907
428
root -19.8701 14.1168 2.66058 9.34174 81.4359 -58.7929
lowerback 7.68513 3.32944 -7.56296
upperback -0.284221 3.55615 -5.15354
thorax -4.74876 1.90141 -1.5781
lowerneck -1.65711 -0.515018 -5.78905
upperneck -30.3568 3.91214 12.7808
head -9.55464 2.11713 5.15412
rclavicle -9.14409e-015 9.34288e-015
rhumerus 40.7676 18.6077 -67.2808
rradius 57.6336
rwrist 20.6612
rhand -49.5438 53.7518
rfingers 7.12502
rthumb -22.1512 25.0008
lclavicle -9.14409e-015 9.34288e-015
lhumerus 54.1587 -12.2286 44.8553
lradius 45.923
lwrist -22.2882
lhand -53.4936 52.3742
lfingers 7.12502
lthumb -25.9385 800.624
rfemur -38.2646 8.16893 26.0837
rtibia 15.4883
rfoot -9.45009 -21.4403
rtoes -13.4634
lfemur -108.013 8.84245 -26.0731
ltibia 68.5455
lfoot -32.3578 4.53386
ltoes -9.72946
429
root -19.8223 14.1215 2.65226 9.17943 81.4646 -59.0713
lowerback 7.73393 3.37923 -7.65715
upperback -0.342699 3.60318 -5.08461
thorax -4.85022 1.92896 -1.46689
lowerneck -1.48998 -0.583873 -5.9949
upperneck -30.47 3.85869 12.9969
head -9.6254 2.08779 5.28105
rclavicle -3.10104e-014 1.98785e-014
rhumerus 40.2176 18.4057 -67.6413
rradius 57.9001
rwrist 20.7978
rhand -48.967 53.5188
rfingers 7.12502
rthumb -21.5974 24.7031
lclavicle -3.10104e-014 1.98785e-014
lhumerus 54.2805 -12.3632 45.0111
lradius 45.9203
lwrist -22.197
lhand -53.3294 52.3269
lfingers 7.12502
lthumb -25.7813 800.6
rfemur -38.4873 8.37367 25.8498
rtibia 15.7779
rfoot -8.71851 -21.2555
rtoes -12.9661
lfemur -107.858 8.75941 -26.0462
ltibia 68.4326
lfoot -32.4897 4.73893
ltoes -10.3276
430
root -19.7711 14.128 2.64097 8.45775 81.3478 -59.8556
lowerback 7.85059 3.41776 -7.71376
upperback -0.408325 3.63029 -4.99683
thorax -4.99595 1.94669 -1.35907
lowerneck -1.4858 -0.597706 -5.961
upperneck -30.4177 3.83106 13.0129
head -9.60324 2.06569 5.28111
rclavicle -5.56597e-014 5.26779e-014
rhumerus 39.5621 18.4451 -68.2235
rradius 58.3422
rwrist 21.4646
rhand -48.9704 54.4526
rfingers 7.12502
rthumb -21.6006 25.6373
lclavicle -5.56597e-014 5.26779e-014
lhumerus 54.2055 -12.3465 45.0341
lradius 45.9373
lwrist -22.0166
lhand -53.296 50.2084
lfingers 7.12502
lthumb -25.7493 798.486
rfemur -38.6793 8.25743 25.9831
rtibia 16.2209
rfoot -8.12942 -20.6402
rtoes -12.6957
lfemur -107.658 8.83778 -25.9135
ltibia 68.3172
lfoot -32.5626 4.83263
ltoes -10.1433
431
root -19.718 14.1392 2.63416 9.12088 81.7865 -59.3671
lowerback 7.66298 3.3797 -7.94274
upperback -0.388821 3.58678 -4.92099
thorax -4.88725 1.92993 -1.13512
lowerneck -1.22477 -0.654964 -5.66143
upperneck -30.6445 3.69843 12.7113
head -9.71654 1.98345 5.13348
rclavicle 1.86858e-014 -4.57205e-015
rhumerus 40.4401 18.1095 -66.9547
rradius 57.9679
rwrist 20.5014
rhand -49.0501 54.2286
rfingers 7.12502
rthumb -21.6771 25.4222
lclavicle 1.86858e-014 -4.57205e-015
lhumerus 54.3339 -12.5235 45.2346
lradius 46.0129
lwrist -22.1105
lhand -53.4763 49.4978
lfingers 7.12502
lthumb -25.9219 797.75
rfemur -38.9683 8.15709 25.6444
rtibia 16.6636
rfoot -7.81486 -20.303
rtoes -11.7716
lfemur -107.489 8.39703 -26.1244
ltibia 68.1357
lfoot -32.6165 4.80561
ltoes -9.94885
432
root -19.6681 14.1479 2.62039 9.72314 82.2485 -58.9245
lowerback 7.63865 3.25482 -7.8347
upperback -0.373803 3.43722 -4.98244
thorax -4.84049 1.85396 -1.23677
lowerneck -1.1453 -0.692677 -5.67375
upperneck -30.7752 3.69327 12.818
head -9.78093 1.97353 5.18102
rclavicle 9.54166e-015 5.02925e-014
rhumerus 40.641 17.9356 -66.5924
rradius 58.0099
rwrist 20.1065
rhand -49.0693 54.0836
rfingers 7.12502
rthumb -21.6955 25.2792
lclavicle 9.54166e-015 5.02925e-014
lhumerus 54.4677 -12.6182 45.2284
lradius 46.1583
lwrist -22.282
lhand -53.6711 50.0993
lfingers 7.12502
lthumb -26.1085 798.325
rfemur -39.2974 8.17329 25.1636
rtibia 17.1225
rfoot -7.43039 -20.1109
rtoes -10.6804
lfemur -107.274 7.86948 -26.2763
ltibia 67.9305
lfoot -32.4682 4.87841
ltoes -8.59293
433
root -19.619 14.1536 2.61756 8.99239 82.3616 -59.8439
lowerback 7.50054 3.22685 -7.79372
upperback -0.439477 3.41594 -4.94003
thorax -4.83103 1.84372 -1.20637
lowerneck -0.926109 -0.711826 -5.83066
upperneck -30.8366 3.69802 13.0095
head -9.84908 1.9647 5.28472
rclavicle 1.98785e-015 6.50026e-014
rhumerus 40.0821 17.9216 -67.075
rradius 58.3099
rwrist 20.6358
rhand -49.2174 54.501
rfingers 7.12502
rthumb -21.8378 25.7132
lclavicle 1.98785e-015 6.50026e-014
lhumerus 54.5149 -12.7465 45.1464
lradius 46.3312
lwrist -22.1408
lhand -53.5001 50.939
lfingers 7.12502
lthumb -25.9447 799.188
rfemur -39.7259 8.34755 24.9979
rtibia 17.708
rfoot -6.90279 -19.8926
rtoes -10.3142
lfemur -107.184 7.77602 -26.2433
ltibia 67.771
lfoot -32.5672 5.0383
ltoes -8.53041
434
root -19.5673 14.1612 2.61586 8.10217 82.3776 -60.881
lowerback 7.434 3.2104 -7.87788
upperback -0.470038 3.39427 -4.84267
thorax -4.83591 1.83599 -1.05293
lowerneck -0.933673 -0.704813 -5.81777
upperneck -30.8729 3.71088 12.9909
head -9.86264 1.97238 5.27585
rclavicle 3.02153e-014 -6.39093e-014
rhumerus 39.6558 18.0111 -67.4357
rradius 58.5808
rwrist 21.0955
rhand -49.2852 54.5398
rfingers 7.12502
rthumb -21.9029 25.7596
lclavicle 3.02153e-014 -6.39093e-014
lhumerus 54.5836 -12.7522 44.9066
lradius 46.4505
lwrist -21.8573
lhand -53.1634 51.5072
lfingers 7.12502
lthumb -25.6222 799.803
rfemur -40.013 8.76295 24.7116
rtibia 18.2696
rfoot -7.82163 -18.3458
rtoes -7.6446
lfemur -107.071 7.79722 -26.1948
ltibia 67.637
lfoot -32.6138 4.92997
ltoes -8.30235
435
root -19.5178 14.17 2.60342 7.63255 82.6311 -61.3998
lowerback 7.61542 3.07128 -7.73274
upperback -0.373256 3.21145 -4.88014
thorax -4.81739 1.74146 -1.15488
lowerneck -1.30032 -0.701483 -5.67553
upperneck -30.9112 3.77278 12.9857
head -9.81369 2.0132 5.24237
rclavicle -2.42517e-014 6.9674e-014
rhumerus 39.7137 17.9851 -67.5926
rradius 58.8068
rwrist 21.1472
rhand -49.1941 54.0729
rfingers 7.12502
rthumb -21.8154 25.2825
lclavicle -2.42517e-014 6.9674e-014
lhumerus 54.7668 -12.6016 44.3797
lradius 46.5472
lwrist -21.5938
lhand -53.2259 52.2831
lfingers 7.12502
lthumb -25.6822 800.571
rfemur -40.2071 9.04324 24.3163
rtibia 18.7858
rfoot -8.01982 -18.2709
rtoes -7.24904
lfemur -106.802 7.51537 -26.1396
ltibia 67.4919
lfoot -32.7244 5.16246
ltoes -8.69995
436
root -19.4726 14.1764 2.58756 7.27625 82.9087 -61.8629
lowerback 7.72735 2.9499 -7.47927
upperback -0.324763 3.06521 -4.94931
thorax -4.80544 1.66311 -1.35203
lowerneck -1.35949 -0.733821 -5.65329
upperneck -31.0454 3.78573 13.0747
head -9.85528 2.01853 5.27551
rclavicle -1.11319e-014 -1.06151e-013
rhumerus 39.7185 17.8194 -67.6631
rradius 59.0353
rwrist 21.2637
rhand -49.2543 54.0338
rfingers 7.12502
rthumb -21.8732 25.2501
lclavicle -1.11319e-014 -1.06151e-013
lhumerus 54.9009 -12.5945 43.9497
lradius 46.7545
lwrist -21.3301
lhand -53.3504 52.9764
lfingers 7.12502
lthumb -25.8014 801.247
rfemur -40.567 9.06287 24.074
rtibia 19.3328
rfoot -7.55229 -18.7382
rtoes -10.0362
lfemur -106.608 7.18941 -26.1215
ltibia 67.3437
lfoot -32.8431 5.11715
ltoes -9.13291
437
root -19.4256 14.1839 2.57689 7.21246 82.8987 -62.0394
lowerback 7.73627 2.94287 -7.42499
upperback -0.356126 3.05644 -4.9767
thorax -4.83881 1.65846 -1.41146
lowerneck -1.13011 -0.745318 -5.85395
upperneck -31.2266 3.83611 13.3077
head -9.97746 2.03723 5.40489
rclavicle 3.10104e-014 2.61402e-014
rhumerus 39.7007 17.7502 -67.5976
rradius 59.1417
rwrist 21.2324
rhand -49.3222 54.7893
rfingers 7.12502
rthumb -21.9384 26.0132
lclavicle 3.10104e-014 2.61402e-014
lhumerus 54.8505 -12.6577 43.6951
lradius 47.0564
lwrist -21.1485
lhand -53.3705 52.3479
lfingers 7.12502
lthumb -25.8206 800.615
rfemur -40.8363 9.23742 23.8037
rtibia 19.848
rfoot -7.61031 -18.9433
rtoes -9.99091
lfemur -106.452 7.16714 -26.1929
ltibia 67.2154
lfoot -32.9802 5.10522
ltoes -9.68072
438
root -19.3779 14.1923 2.56903 6.94305 82.665 -62.3986
lowerback 7.7656 3.02796 -7.46614
upperback -0.494346 3.14852 -4.96823
thorax -5.00753 1.70889 -1.40047
lowerneck -0.619424 -0.738707 -6.14884
upperneck -31.4345 3.90813 13.6244
head -10.1696 2.05169 5.58615
rclavicle -3.26007e-014 -6.75868e-015
rhumerus 39.5376 17.767 -67.5009
rradius 59.2136
rwrist 20.9356
rhand -49.3127 53.535
rfingers 7.12502
rthumb -21.9293 24.7579
lclavicle -3.26007e-014 -6.75868e-015
lhumerus 54.6177 -12.8247 43.6604
lradius 47.305
lwrist -21.1911
lhand -53.4198 52.3891
lfingers 7.12502
lthumb -25.8678 800.65
rfemur -41.016 9.34745 23.7495
rtibia 20.2622
rfoot -7.57961 -18.847
rtoes -10.8427
lfemur -106.295 7.36034 -26.1503
ltibia 67.1244
lfoot -32.9594 5.50746
ltoes -9.80328
439
root -19.3296 14.1998 2.56017 6.17324 82.5498 -63.3827
lowerback 7.70171 3.02908 -7.40524
upperback -0.582697 3.15474 -4.97823
thorax -5.06099 1.71241 -1.44562
lowerneck -0.658169 -0.754114 -6.11196
upperneck -31.428 3.92851 13.7438
head -10.1633 2.04925 5.62266
rclavicle 7.15625e-014 6.4605e-014
rhumerus 39.4467 17.7342 -67.5563
rradius 59.3438
rwrist 20.8626
rhand -49.2879 52.7733
rfingers 7.12502
rthumb -21.9055 23.9933
lclavicle 7.15625e-014 6.4605e-014
lhumerus 54.5466 -12.8838 43.4828
lradius 47.4327
lwrist -21.2639
lhand -53.3197 54.3678
lfingers 7.12502
lthumb -25.7719 802.642
rfemur -41.382 9.03734 24.0156
rtibia 20.6465
rfoot -6.59926 -18.2509
rtoes -12.0053
lfemur -106.261 7.42834 -26.0186
ltibia 67.0328
lfoot -33.0761 5.47999
ltoes -9.86639
440
root -19.28 14.2092 2.54674 5.67112 82.6651 -64.0991
lowerback 7.59554 2.95893 -7.3132
upperback -0.54919 3.08579 -4.99266
thorax -4.95711 1.67438 -1.49416
lowerneck -1.05227 -0.78545 -5.88326
upperneck -31.3393 3.89873 13.6637
head -10.047 2.03905 5.54552
rclavicle -4.21423e-014 -7.67309e-014
rhumerus 39.4882 17.5861 -67.6961
rradius 59.4257
rwrist 21.0453
rhand -49.1724 52.7659
rfingers 7.12502
rthumb -21.7946 23.973
lclavicle -4.21423e-014 -7.67309e-014
lhumerus 54.6923 -12.8077 43.3412
lradius 47.5415
lwrist -21.001
lhand -53.3173 52.8884
lfingers 7.12502
lthumb -25.7697 801.163
rfemur -41.7022 8.63354 24.1608
rtibia 20.9716
rfoot -5.10249 -17.3932
rtoes -9.37
lfemur -106.187 7.24068 -25.9772
ltibia 66.9279
lfoot -33.0591 5.52342
ltoes -9.0981
